<?xml version="1.0" encoding="iso-8859-1"?>
<!-- Generator: Adobe Illustrator 25.2.1, SVG Export Plug-In . SVG Version: 6.00 Build 0)  -->
<svg version="1.1" id="_x30_1" xmlns="http://www.w3.org/2000/svg" xmlns:xlink="http://www.w3.org/1999/xlink" x="0px" y="0px"
	 width="500px" height="135px" viewBox="0 0 500 135" enable-background="new 0 0 500 135" xml:space="preserve">
<polygon fill="#1904DA" points="71.153,8.189 31.4,62.284 71.153,112.569 110.419,62.923 "/>
<path fill="#FF445F" d="M46.731,131.015c0.001,0,0.002,0,0.003,0l48.846-0.011c0.002,0,0.004,0,0.005,0
	c1.14,0,2.273-0.246,3.319-0.694l-27.752-17.741l-27.598,17.813C44.561,130.792,45.643,131.015,46.731,131.015z"/>
<path fill="#FFC900" d="M110.419,62.923l-39.266,49.646l27.752,17.741c1.262-0.541,2.397-1.376,3.256-2.442l27.959-34.782
	l2.489-3.097c0.513-0.638,0.923-1.354,1.224-2.112c0.143-0.359,0.261-0.728,0.353-1.103L110.419,62.923z"/>
<path fill="#FFC900" d="M8.078,86.64c0.217,0.956,0.599,1.875,1.137,2.697c0.149,0.229,0.309,0.45,0.478,0.664l30.461,37.873
	c0.892,1.108,2.08,1.969,3.402,2.508l27.598-17.813L31.4,62.284L8.078,86.64z"/>
<path fill="#00FFE4" d="M20.78,32.099c-0.897,1.028-1.543,2.271-1.856,3.634L8.072,82.937c-0.242,1.052-0.266,2.15-0.089,3.214
	c0.027,0.164,0.058,0.327,0.095,0.488L31.4,62.284L20.78,32.099z"/>
<path fill="#00FFE4" d="M134.188,86.774c0.311-1.258,0.34-2.585,0.049-3.848l-10.873-47.232c-0.295-1.279-0.884-2.452-1.7-3.438
	l-11.244,30.667L134.188,86.774z"/>
<g>
	<path fill="#08B1D5" d="M56.624,27.961L71.153,8.189c-0.004,0-0.008,0-0.013,0c-0.017,0-0.035,0.001-0.052,0.001
		C70.964,8.191,70.84,8.194,70.715,8.2c-0.014,0.001-0.028,0.003-0.043,0.004c-1.1,0.06-2.188,0.337-3.182,0.812L23.483,30.043
		c-1.046,0.5-1.96,1.204-2.703,2.056L31.4,62.284L56.624,27.95V27.961z"/>
	<path fill="#08B1D5" d="M118.832,30.042L74.797,9.016c-1.132-0.542-2.387-0.825-3.643-0.827l39.266,54.733l11.244-30.667
		C120.901,31.333,119.94,30.571,118.832,30.042z"/>
</g>
<g>
	<path fill="#07242D" d="M179,108.611h-8.361l-16.315-16.496c-0.664,0.083-1.34,0.126-2.027,0.126v16.37h-5.959V62.369h5.959
		c0,0-0.011,23.984,0,23.984c2.902,0,5.558-1.198,7.443-3.125l7.132-7.286h8.545l-11.596,11.514
		c-1.027,1.028-2.192,1.921-3.462,2.646L179,108.611z"/>
	<path fill="#07242D" d="M211.871,75.856v16.505c0,0,0,0.024,0,0.035c0,8.961-7.261,16.215-16.223,16.215
		c-8.961,0-16.217-7.276-16.217-16.237c0-0.012,0-16.518,0-16.518h5.778v16.505c0,5.762,4.677,10.457,10.439,10.457
		c5.762,0,10.433-4.695,10.433-10.457V75.856H211.871z"/>
	<path fill="#07242D" d="M250.26,92.238c0,9.042-7.33,16.373-16.373,16.373c-3.967,0-7.605-1.411-10.438-3.758v3.758h-5.944
		c0.004-0.373,0.004-46.242,0.004-46.242h5.944l-0.003,17.254c2.834-2.348,6.471-3.758,10.439-3.758
		C242.93,75.864,250.261,83.195,250.26,92.238z M244.333,92.238c0-5.769-4.677-10.445-10.446-10.445
		c-5.637,0-10.447,4.578-10.447,10.429c0,5.851,4.81,10.462,10.447,10.462C239.656,102.683,244.333,98.007,244.333,92.238z"/>
	<path fill="#07242D" d="M286.212,94.367h-26.414c0.994,4.714,5.176,8.271,10.181,8.271c3.265,0,6.176-1.516,8.081-3.878h6.927
		c-2.529,5.792-8.3,9.851-15.007,9.851c-9.033,0-16.379-7.358-16.379-16.402s7.345-16.353,16.379-16.353
		C279.783,75.779,287.568,84.659,286.212,94.367z M279.65,88.392c-1.521-3.845-5.277-6.553-9.672-6.553s-8.155,2.71-9.679,6.553
		H279.65z"/>
	<path fill="#07242D" d="M307.437,86.979v5.459h-16.855v-5.459H307.437z"/>
	<path fill="#07242D" d="M345.923,92.238c0,9.042-7.33,16.373-16.373,16.373c-3.967,0-7.605-1.411-10.438-3.758v3.758h-5.944
		c0.004-0.373,0.004-46.242,0.004-46.242h5.944l-0.003,17.254c2.834-2.348,6.471-3.758,10.438-3.758
		C338.593,75.864,345.924,83.195,345.923,92.238z M339.996,92.238c0-5.769-4.677-10.445-10.446-10.445
		c-5.637,0-10.447,4.578-10.447,10.429c0,5.851,4.81,10.462,10.447,10.462C335.318,102.683,339.996,98.007,339.996,92.238z"/>
	<path fill="#07242D" d="M381.874,94.367H355.46c0.994,4.714,5.176,8.271,10.181,8.271c3.265,0,6.176-1.516,8.081-3.878h6.927
		c-2.529,5.792-8.3,9.851-15.007,9.851c-9.033,0-16.379-7.358-16.379-16.402s7.345-16.353,16.379-16.353
		C375.445,75.779,383.23,84.659,381.874,94.367z M375.312,88.392c-1.521-3.845-5.277-6.553-9.672-6.553s-8.155,2.71-9.679,6.553
		H375.312z"/>
	<path fill="#07242D" d="M419.609,92.201c0,11.479,0,16.41,0,16.41h-5.976c0,0,0-10.761,0-16.41c0-5.855-4.767-10.363-10.389-10.363
		c-5.622,0-10.41,4.458-10.41,10.363c0,5.652,0,16.41,0,16.41h-5.975V75.856c0,0,2.56,0,5.975,0v3.69c0,0,3.921-3.69,10.41-3.69
		C410.942,75.856,419.609,81.839,419.609,92.201z"/>
	<path fill="#07242D" d="M447.468,99.621l4.194,4.194c-2.964,2.964-7.058,4.797-11.581,4.797c-4.522,0-8.616-1.833-11.581-4.797
		c-2.964-2.964-4.797-7.058-4.797-11.581s1.833-8.616,4.797-11.581c2.964-2.964,7.058-4.797,11.581-4.797
		c4.522,0,8.616,1.833,11.581,4.797l-4.194,4.194c-1.89-1.891-4.502-3.061-7.386-3.061s-5.497,1.17-7.386,3.061
		c-1.891,1.89-3.06,4.502-3.06,7.386c0,2.885,1.169,5.497,3.06,7.387c1.89,1.89,4.502,3.059,7.386,3.059
		S445.577,101.511,447.468,99.621z"/>
	<path fill="#07242D" d="M488.639,92.244c0,11.448,0,16.366,0,16.366h-5.96c0,0,0-10.733,0-16.366
		c0-5.838-4.756-10.334-10.361-10.334c-5.607,0-10.382,4.446-10.382,10.334c0,5.637,0,16.366,0,16.366h-5.958v-46.24h5.958v17.255
		c0,0,3.909-3.679,10.382-3.679C479.996,75.945,488.639,81.912,488.639,92.244z"/>
</g>
<g>
	<path fill="#07242D" d="M180.326,58.699h3.129V39.263c0.01-0.171,0-0.344,0-0.517c0-4.751-3.841-8.602-8.592-8.602
		c-4.751,0-8.602,3.851-8.602,8.602s3.851,8.602,8.602,8.602h0.435l3.164-3.15h-3.36h-0.239c-3.011,0-5.451-2.441-5.451-5.451
		s2.441-5.451,5.451-5.451c3.011,0,5.463,2.441,5.463,5.451V58.699z"/>
	<g>
		<path fill="#07242D" d="M200.111,30.144v8.709c0,3.041-2.465,5.518-5.505,5.518c-3.041,0-5.508-2.477-5.508-5.518v-8.709h-3.049
			v8.709c0,0,0,0,0,0.007c0,4.729,3.828,8.568,8.557,8.568c4.729,0,8.561-3.827,8.561-8.556c0-0.006,0-0.019,0-0.019v-8.709H200.111
			z"/>
	</g>
	<g>
		<path fill="#07242D" d="M163.154,35.833c-3.405-8.994-16.602-6.81-16.802,2.939c0.005,2.094,0.724,3.972,1.979,5.502
			c1.472,1.787,3.646,2.973,6.101,3.134c0.189,0.012,0.379,0.019,0.57,0.019h8.665c0,0,0-8.656,0-8.655
			C163.666,37.773,163.493,36.772,163.154,35.833z M160.464,44.267c0,0-3.937,0-5.455,0c-3.028,0-5.482-2.468-5.482-5.496
			c0-1.517,0.617-2.877,1.613-3.87l0.001,0.001c3.386-3.431,9.345-1.024,9.324,3.869C160.464,40.289,160.464,44.267,160.464,44.267z
			"/>
	</g>
	<g>
		<path fill="#07242D" d="M222.563,35.833c-3.405-8.994-16.602-6.81-16.802,2.939c0.005,2.094,0.724,3.972,1.979,5.502
			c1.472,1.787,3.646,2.973,6.101,3.134c0.189,0.012,0.379,0.019,0.57,0.019h8.665c0,0,0-8.656,0-8.655
			C223.075,37.773,222.902,36.772,222.563,35.833z M219.873,44.267c0,0-3.938,0-5.455,0c-3.028,0-5.482-2.468-5.482-5.496
			c0-1.517,0.617-2.877,1.613-3.87l0.001,0.001c3.386-3.431,9.345-1.024,9.324,3.869C219.873,40.289,219.873,44.267,219.873,44.267z
			"/>
	</g>
</g>
<path fill="#FFFFFF" d="M87.645,83.488h-8.361L62.969,66.992c-0.664,0.083-1.34,0.126-2.027,0.126v16.37h-5.959V37.246h5.959
	c0,0-0.011,23.984,0,23.984c2.902,0,5.558-1.198,7.443-3.125l7.132-7.286h8.545L72.467,62.333c-1.027,1.028-2.192,1.921-3.462,2.646
	L87.645,83.488z"/>
</svg>
